<svg width="85" height="85" viewBox="0 0 85 85" fill="none" xmlns="http://www.w3.org/2000/svg">
<circle cx="42.5" cy="42.5" r="42" stroke="white"/>
<path d="M61.5231 43.9084H49.4648C50.011 42.6542 50.243 41.2387 50.184 39.8432C51.6685 39.9249 53.0297 38.8319 53.0297 37.2683C53.0297 36.7285 52.8623 36.2272 52.5773 35.8128C53.0429 35.5039 53.3508 34.9757 53.3508 34.3762V33.1438C53.3508 32.1934 52.5777 31.4204 51.6274 31.4204H50.1839V27.0673C50.184 24.2732 47.9108 22 45.1167 22H37.9846C35.1904 22 32.9173 24.2732 32.9173 27.0673V31.4203H31.4737C30.5234 31.4203 29.7503 32.1934 29.7503 33.1437V34.3761C29.7503 34.9756 30.0583 35.5038 30.5238 35.8127C30.2388 36.2271 30.0715 36.7284 30.0715 37.2682C30.0715 38.7694 31.4013 39.9911 32.9172 39.8431C32.785 41.1629 33.1349 42.7458 33.6398 43.9083H21.5781C20.1565 43.9083 19 45.0648 19 46.4865V53.3883C19 54.81 20.1565 55.9665 21.5781 55.9665H24.3525C24.2883 56.2212 24.2398 56.48 24.2076 56.7415C23.8711 56.7308 23.5344 56.8207 23.2411 57.0094C22.7686 57.3135 22.4866 57.8264 22.4866 58.3815V60.5328H21.5542C20.92 60.5328 20.3613 60.983 20.2257 61.6032C19.9932 62.6665 19.8863 63.7559 19.9081 64.8411C19.9261 65.7407 20.0329 66.6431 20.2256 67.5234C20.3613 68.1437 20.9201 68.5938 21.5541 68.5938H22.4866V69.2969C22.4866 69.6852 22.8014 70 23.1897 70C23.578 70 23.8928 69.6852 23.8928 69.2969V68.5938H24.2923C25.5832 68.5938 26.6335 67.5435 26.6335 66.2525V62.8741C26.6335 61.5831 25.5832 60.5328 24.2923 60.5328H23.8929V58.3816C23.9023 58.1961 24.0721 58.0892 24.2749 58.1732L31.6676 61.5361V69.2969C31.6676 69.6852 31.9824 70 32.3707 70C32.759 70 33.0738 69.6852 33.0738 69.2969V61.5357L40.8476 57.9993V69.2969C40.8476 69.6852 41.1624 70 41.5507 70C41.939 70 42.2538 69.6852 42.2538 69.2969V57.9992C42.4266 58.0846 49.8423 61.446 50.028 61.5359V69.2969C50.028 69.6852 50.3428 70 50.7311 70C51.1194 70 51.4342 69.6852 51.4342 69.2969V61.5359L58.8268 58.1731C59.0334 58.0898 59.199 58.196 59.2085 58.3816V60.5329H58.8092C57.5182 60.5329 56.4679 61.5832 56.4679 62.8742V66.2526C56.4679 67.5436 57.5182 68.5938 58.8092 68.5938H59.2086V69.297C59.2086 69.6853 59.5234 70.0001 59.9118 70.0001C60.3001 70.0001 60.6149 69.6853 60.6149 69.297V68.5938H61.5473C62.1813 68.5938 62.7401 68.1437 62.8758 67.5235C63.0685 66.6431 63.1753 65.7407 63.1934 64.8412C63.2151 63.756 63.1083 62.6666 62.8758 61.6033C62.7401 60.9831 62.1814 60.5329 61.5472 60.5329H60.6149V58.3816C60.6149 57.8265 60.3328 57.3136 59.8604 57.0095C59.567 56.8208 59.2304 56.7308 58.8938 56.7415C58.8617 56.48 58.8131 56.2213 58.749 55.9666H61.5233C62.9449 55.9666 64.1014 54.8101 64.1014 53.3884V46.4866C64.1013 45.0649 62.9448 43.9084 61.5231 43.9084ZM22.8701 54.5603H21.5781C20.9319 54.5603 20.4062 54.0347 20.4062 53.3884V46.4866C20.4062 45.8403 20.9319 45.3147 21.5781 45.3147H22.8701V54.5603ZM24.2922 61.9392C24.8077 61.9392 25.2272 62.3586 25.2272 62.8742V66.2526C25.2272 66.7682 24.8077 67.1876 24.2922 67.1876H21.5916C21.4233 66.4078 21.33 65.6091 21.314 64.813C21.2946 63.8501 21.3881 62.8834 21.5917 61.9393H24.2922V61.9392ZM61.5095 61.9392C61.7132 62.8833 61.8065 63.8501 61.7872 64.813C61.7713 65.609 61.6778 66.4078 61.5096 67.1875H58.8091C58.2935 67.1875 57.8741 66.7681 57.8741 66.2525V62.8741C57.8741 62.3585 58.2935 61.9391 58.8091 61.9391H61.5095V61.9392ZM56.0125 45.3147V52.1724C55.3899 51.7757 54.6992 51.4863 53.9716 51.3264L47.0645 49.8085C46.5314 49.6917 46.1445 49.2106 46.1445 48.6644V47.7633C46.6851 47.4222 47.1929 47.0204 47.656 46.5573C48.0416 46.1717 48.3846 45.7551 48.686 45.3148H56.0125V45.3147ZM50.1841 38.4369V36.0996C50.9063 35.9894 51.6235 36.5112 51.6235 37.2682C51.6235 38.0115 50.9132 38.5521 50.1841 38.4369ZM34.3235 27.0673C34.3235 25.0486 35.9658 23.4062 37.9846 23.4062H45.1167C47.1354 23.4062 48.7777 25.0486 48.7777 27.0673V31.4203H34.3235V27.0673ZM32.9172 38.4369C32.1784 38.5263 31.4778 38.0436 31.4778 37.2683C31.4778 36.5145 32.1984 35.9918 32.9172 36.0997V38.4369ZM31.4737 34.6934C31.2988 34.6934 31.1566 34.5511 31.1566 34.3762V33.1438C31.1566 32.9688 31.2989 32.8266 31.4737 32.8266H51.6275C51.8025 32.8266 51.9447 32.9689 51.9447 33.1438V34.3762C51.9447 34.5512 51.8024 34.6934 51.6275 34.6934H39.8339C39.4456 34.6934 39.1308 35.0082 39.1308 35.3965C39.1308 35.7848 39.4456 36.0996 39.8339 36.0996H48.7778V40.4528C48.7788 42.3913 48.0168 44.2076 46.6616 45.5628C46.1933 46.0311 45.6711 46.4253 45.1104 46.7437C44.0223 47.3616 42.8415 47.68 41.5506 47.68C37.5656 47.68 34.3234 44.4378 34.3234 40.4528V36.0996H36.5526C36.9409 36.0996 37.2558 35.7848 37.2558 35.3965C37.2558 35.0082 36.9409 34.6934 36.5526 34.6934H31.4737ZM45.1577 50.0639L41.5506 53.6709L37.9436 50.0639C38.2439 49.6041 38.3883 49.0412 38.3631 48.4762C39.3498 48.8696 40.4253 49.0863 41.5506 49.0863C42.6602 49.0863 43.737 48.8763 44.7381 48.4789C44.69 49.0247 44.8702 49.6224 45.1577 50.0639ZM27.0888 45.3147H34.4201C35.0889 46.2925 35.9535 47.1262 36.9568 47.7593V48.6644C36.9568 49.2106 36.5699 49.6917 36.0362 49.8086L29.1296 51.3264C28.402 51.4863 27.7113 51.7757 27.0887 52.1724V45.3147H27.0888ZM24.8906 54.5603H24.2763V45.3147H25.6826V53.3917C25.374 53.7508 25.1097 54.1435 24.8906 54.5603ZM32.3703 60.3108L25.5759 57.2201C25.7052 55.0471 27.2861 53.1715 29.4317 52.6998L33.6804 51.7661L39.1437 57.2294L32.3703 60.3108ZM50.731 60.3108L43.9577 57.2295L45.2861 55.901C45.5607 55.6264 45.5607 55.1812 45.2861 54.9067C45.0115 54.6321 44.5663 54.6321 44.2918 54.9067L42.5892 56.6093C41.9246 56.3302 41.1766 56.3302 40.512 56.6093L35.3106 51.408L36.3376 51.1823C36.5294 51.1403 36.7114 51.075 36.8838 50.993L40.9206 55.0299C41.0888 55.1982 41.3126 55.2909 41.5505 55.2909C41.7885 55.2909 42.0123 55.1982 42.1803 55.03L46.2172 50.993C46.3894 51.075 46.5713 51.1402 46.763 51.1822L47.7904 51.408L46.6341 52.5644C46.3595 52.839 46.3595 53.2842 46.6341 53.5587C46.9087 53.8333 47.3539 53.8333 47.6284 53.5587L49.4208 51.7663L53.6695 52.6999C55.8151 53.1716 57.396 55.0472 57.5253 57.2202L50.731 60.3108ZM58.8249 54.5603H58.2107C57.9919 54.1439 57.7269 53.7505 57.4188 53.3917V45.3147H58.825V54.5603H58.8249ZM62.695 53.3884C62.695 54.0347 62.1693 54.5603 61.5231 54.5603H60.2312V45.3147H61.5231C62.1693 45.3147 62.695 45.8403 62.695 46.4866V53.3884ZM45.3768 39.9352C45.7651 39.9352 46.0799 39.6204 46.0799 39.2321V37.7016C46.0799 37.3133 45.7651 36.9985 45.3768 36.9985C44.9884 36.9985 44.6736 37.3133 44.6736 37.7016V39.2321C44.6736 39.6204 44.9884 39.9352 45.3768 39.9352ZM37.0214 37.7016V39.2321C37.0214 39.6204 37.3362 39.9352 37.7245 39.9352C38.1128 39.9352 38.4276 39.6204 38.4276 39.2321V37.7016C38.4276 37.3133 38.1128 36.9985 37.7245 36.9985C37.3362 36.9985 37.0214 37.3133 37.0214 37.7016ZM39.682 44.3318C40.072 44.5457 40.7057 44.8025 41.5099 44.8109C42.3209 44.8194 43.0187 44.5515 43.4192 44.3318C43.7597 44.1451 43.8843 43.7177 43.6975 43.3772C43.5108 43.0367 43.0833 42.9122 42.7428 43.0988C42.4829 43.2414 42.0597 43.4105 41.5247 43.4047C41.0117 43.3993 40.6072 43.2354 40.3583 43.0988C40.0177 42.912 39.5904 43.0367 39.4037 43.3772C39.2169 43.7177 39.3416 44.1451 39.682 44.3318Z" fill="white"/>
</svg>
